<?xml version="1.0" standalone="no"?>
<!DOCTYPE svg PUBLIC "-//W3C//DTD SVG 20010904//EN"
 "http://www.w3.org/TR/2001/REC-SVG-20010904/DTD/svg10.dtd">
<svg version="1.0" xmlns="http://www.w3.org/2000/svg"
 width="300.000000pt" height="300.000000pt" viewBox="0 0 300.000000 300.000000"
 preserveAspectRatio="xMidYMid meet">

<g transform="translate(0.000000,300.000000) scale(0.100000,-0.100000)"
fill="#000000" stroke="none">
<path d="M95 2985 c-45 -16 -70 -45 -85 -95 -6 -23 -10 -521 -10 -1415 0
-1367 0 -1380 20 -1413 41 -66 -53 -63 1488 -60 l1397 3 34 24 c65 46 61 -44
61 1453 0 1278 -1 1365 -18 1397 -9 19 -30 44 -45 55 -28 21 -34 21 -1270 26
-683 3 -1231 6 -1217 8 18 2 21 5 11 11 -11 7 -11 9 0 14 8 3 -62 6 -156 6
-122 0 -181 -4 -210 -14z m987 -746 c27 -14 48 -69 48 -124 l0 -45 325 0 325
0 0 -95 0 -95 -325 0 -325 0 0 -75 0 -75 90 -158 90 -157 -45 -13 c-26 -8 -61
-28 -81 -49 -19 -19 -37 -33 -38 -32 -2 2 -49 86 -106 187 l-102 182 -150 0
c-166 0 -197 8 -217 58 -9 20 -11 93 -9 241 l3 213 28 24 c28 24 30 24 248 24
139 0 228 -4 241 -11z m1329 -18 l29 -29 0 -212 c0 -223 -6 -256 -49 -280 -12
-6 -107 -10 -235 -10 l-216 0 -30 28 -29 27 -1 200 c-1 110 -1 213 -1 228 1
16 12 39 26 52 l24 25 226 0 227 0 29 -29z m-658 -939 l27 -28 0 -223 0 -223
-29 -29 -29 -29 -222 0 -222 0 -29 29 -29 29 0 220 0 220 26 31 26 31 227 0
227 0 27 -28z"/>
</g>
</svg>
